<?xml version="1.0" encoding="UTF-8" standalone="no"?>
<svg width="374px" height="122px" viewBox="0 0 374 122" version="1.1" xmlns="http://www.w3.org/2000/svg" xmlns:xlink="http://www.w3.org/1999/xlink" xmlns:sketch="http://www.bohemiancoding.com/sketch/ns">
    <!-- Generator: Sketch 3.2.2 (9983) - http://www.bohemiancoding.com/sketch -->
    <title>dotsy</title>
    <desc>Created with Sketch.</desc>
    <defs>
        <path id="path-1" d="M51.3575646,98.4757344 C77.3087149,98.4757344 98.3462789,77.4075907 98.3462789,51.4187184 C98.3462789,25.4298461 77.3087149,4.36170243 51.3575646,4.36170243 C25.4064143,4.36170243 4.36885035,25.4298461 4.36885035,51.4187184 C4.36885035,77.4075907 25.4064143,98.4757344 51.3575646,98.4757344 Z"></path>
    </defs>
    <g id="Page-1" stroke="none" stroke-width="1" fill="none" fill-rule="evenodd" sketch:type="MSPage">
        <g id="dotsy" sketch:type="MSArtboardGroup">
            <g id="Group" sketch:type="MSLayerGroup">
                <path d="M102.654264,51.4187184 C102.654264,23.0646509 79.6930245,0.07003576 51.3575646,0.07003576 C23.0221047,0.07003576 0.0608655639,23.0646509 0.0608655639,51.4187184 C0.0608655639,79.772786 23.0221047,102.767401 51.3575646,102.767401 C79.6930245,102.767401 102.654264,79.772786 102.654264,51.4187184 Z M98.3462789,51.4187184 C98.3462789,25.4298461 77.3087149,4.36170243 51.3575646,4.36170243 C25.4064143,4.36170243 4.36885035,25.4298461 4.36885035,51.4187184 C4.36885035,77.4075907 25.4064143,98.4757344 51.3575646,98.4757344 C77.3087149,98.4757344 98.3462789,77.4075907 98.3462789,51.4187184 Z" id="Oval-4" fill="#FFB800" sketch:type="MSShapeGroup"></path>
                <path d="M99.81491,51.4187184 C99.81491,24.6235296 78.1215477,2.89863424 51.3575646,2.89863424 C24.5935815,2.89863424 2.90021918,24.6235296 2.90021918,51.4187184 C2.90021918,78.2139073 24.5935815,99.9388026 51.3575646,99.9388026 C78.1215477,99.9388026 99.81491,78.2139073 99.81491,51.4187184 Z M5.83748153,51.4187184 C5.83748153,26.2361627 26.2192471,5.82477061 51.3575646,5.82477061 C76.4958821,5.82477061 96.8776477,26.2361627 96.8776477,51.4187184 C96.8776477,76.6012742 76.4958821,97.0126663 51.3575646,97.0126663 C26.2192471,97.0126663 5.83748153,76.6012742 5.83748153,51.4187184 Z" id="Oval-5" fill="#FFE8AA" sketch:type="MSShapeGroup"></path>
                <g id="Oval-1">
                    <use fill="#FFD64F" fill-rule="evenodd" sketch:type="MSShapeGroup" xlink:href="#path-1"></use>
                    <use fill="none" xlink:href="#path-1"></use>
                </g>
                <ellipse id="Oval-2" fill="#333333" sketch:type="MSShapeGroup" cx="29.4884378" cy="33.7017816" rx="7.03652272" ry="8.1958613"></ellipse>
                <ellipse id="Oval-3" fill="#333333" sketch:type="MSShapeGroup" cx="74.0530817" cy="36.0434563" rx="7.03652272" ry="8.1958613"></ellipse>
                <path d="M29.0348986,79.7649787 C34.0147757,85.9074987 41.22077,89.2652456 48.969378,89.3157898 C56.6409641,89.3658315 64.1735515,86.1633437 69.7574778,80.2947422 C75.881237,73.8587865 79.3315493,64.660149 79.3315493,53.5098446 L78.1566443,53.5098446 C78.1566443,64.3691331 74.8150368,73.2779604 68.9047735,79.489536 C63.544388,85.1232003 56.3232397,88.1932793 48.9770709,88.1453603 C41.5759398,88.0970828 34.7042572,84.8951137 29.9489239,79.0295613 C24.650072,72.4935959 22.2042033,63.0450481 23.2936571,51.3182746 L22.123752,51.2104086 C21.0075148,63.2254766 23.531849,72.9771419 29.0348986,79.7649787 Z" id="Path" fill="#333333" sketch:type="MSShapeGroup"></path>
            </g>
            <path d="M165.062293,96.1659148 C187.442222,96.1659148 196.194768,80.0663838 196.194768,60.8579778 C196.194768,19.2212597 170.823463,3.78791622 156.752914,3.78791622 L137.91832,3.78791622 C136.034861,3.78791622 130.273691,1.78935375 130.273691,56.6387904 C130.273691,98.2755085 133.597443,96.1659148 136.367236,96.1659148 L165.062293,96.1659148 Z M147.5572,38.2076032 C147.5572,31.2126345 149.108284,16.8896035 156.863705,16.8896035 C164.065167,16.8896035 178.246508,28.8809783 178.246508,56.3056967 C178.246508,76.2913214 167.056544,81.953915 161.073791,81.953915 C154.869454,81.953915 147.5572,79.0671026 147.5572,54.0850717 L147.5572,38.2076032 Z M224.397539,97.5959288 C235.317804,97.5959288 248.232204,87.9843529 248.232204,65.6207854 C248.232204,50.2993625 240.920374,33.8359702 224.397539,33.8359702 C207.874703,33.8359702 200.562874,50.2993625 200.562874,65.6207854 C200.562874,87.9843529 213.477274,97.5959288 224.397539,97.5959288 Z M224.397539,81.7035212 C214.806698,81.7035212 212.337768,70.8548118 212.337768,63.2416824 C212.337768,55.7237172 214.996615,45.065336 224.397539,45.065336 C233.798462,45.065336 236.457309,55.7237172 236.457309,63.2416824 C236.457309,70.8548118 233.98838,81.7035212 224.397539,81.7035212 Z M273.794877,21.3694708 C271.895701,21.3694708 261.260313,24.0340661 260.785519,27.6503025 C260.310724,30.9810466 260.025848,35.6440884 257.082124,35.6440884 C256.322454,35.6440884 255.657742,35.2634319 255.277907,35.2634319 C251.669471,35.2634319 249.580377,36.119909 249.580377,43.3523819 C249.580377,45.065336 249.485418,46.3024695 250.719883,46.3024695 C251.76443,46.3024695 252.714018,45.1605001 254.423277,45.1605001 C258.696424,45.1605001 257.841795,50.2041983 257.841795,53.0591219 C257.841795,54.8672401 257.272042,59.4351177 257.272042,71.1403042 C257.272042,76.3743306 258.22163,97.5959288 261.830066,97.5959288 C264.014119,97.5959288 275.029342,92.2667382 275.029342,90.8392764 C275.029342,89.2214865 269.711648,85.0342653 269.711648,59.7206101 C269.711648,51.2510036 269.711648,45.1605001 274.934383,45.1605001 C276.643642,45.1605001 278.542819,46.0169772 279.302489,46.0169772 C281.296625,46.0169772 281.296625,42.4007407 281.296625,41.0684431 C281.296625,37.8328631 281.201666,35.2634319 277.59323,35.2634319 C276.358766,35.2634319 275.21926,35.7392525 273.984795,35.7392525 C272.560413,35.7392525 272.085619,34.5972831 272.085619,32.884329 C272.085619,31.7423596 274.934383,25.9373484 274.934383,23.3679173 C274.934383,21.559799 274.459589,21.3694708 273.794877,21.3694708 Z M303.504019,97.5959288 C314.899078,97.5959288 325.154631,90.5537841 325.154631,78.1824488 C325.154631,58.864133 297.426655,59.0544613 297.426655,49.2525572 C297.426655,46.3976337 301.414925,45.065336 304.358649,45.065336 C313.094861,45.065336 313.664614,52.392973 316.133543,52.392973 C318.317596,52.392973 323.63529,44.6846795 323.63529,42.8765613 C323.63529,40.973279 317.083131,33.8359702 305.213278,33.8359702 C294.957725,33.8359702 285.65176,40.1168019 285.65176,51.7268242 C285.65176,70.6644836 311.290643,68.0950524 311.290643,77.8969565 C311.290643,82.7503265 306.732619,84.7487729 302.839308,84.7487729 C289.355155,84.7487729 286.981184,70.3789912 286.50639,70.3789912 C285.746719,70.3789912 283.467707,76.0888383 283.467707,80.5615518 C283.467707,91.6957535 293.438384,97.5959288 303.504019,97.5959288 Z M326.026569,116.840394 C326.026569,119.881092 326.129914,121.864155 328.506856,121.864155 C351.242826,121.864155 374.598867,84.3181506 373.668759,45.5823078 C373.668759,39.8975254 373.978795,35.6669897 372.015234,35.2703769 L362.817501,35.2703769 C361.680702,35.2703769 359.09707,34.8737642 359.09707,37.2534406 C359.09707,39.3687084 360.233868,44.9212866 360.233868,51.5314987 C360.233868,61.7112253 357.443545,77.5757343 353.309732,77.5757343 C351.242826,77.5757343 341.114985,63.0332677 341.114985,47.5653714 C341.114985,43.5992442 342.045093,39.5009127 342.045093,37.6500533 C342.045093,34.8737642 339.771496,35.2703769 338.428006,35.2703769 L329.953691,35.2703769 C325.923223,35.2703769 326.026569,35.5347854 326.026569,41.4839763 C326.026569,78.2367555 344.008654,87.6232567 344.008654,93.1758348 C344.008654,94.8944899 340.908294,99.7860469 329.023583,99.7860469 C326.233259,99.7860469 326.026569,103.61997 326.026569,105.206421 L326.026569,116.840394 Z" id="Dottsy" fill="#333333" sketch:type="MSShapeGroup"></path>
        </g>
    </g>
</svg>