<?xml version="1.0" encoding="UTF-8" standalone="no"?>
<svg width="402px" height="109px" viewBox="0 0 402 109" version="1.1" xmlns="http://www.w3.org/2000/svg" xmlns:xlink="http://www.w3.org/1999/xlink" xmlns:sketch="http://www.bohemiancoding.com/sketch/ns">
    <!-- Generator: Sketch 3.2.2 (9983) - http://www.bohemiancoding.com/sketch -->
    <title>safely</title>
    <desc>Created with Sketch.</desc>
    <defs></defs>
    <g id="Page-1" stroke="none" stroke-width="1" fill="none" fill-rule="evenodd" sketch:type="MSPage">
        <g id="safely" sketch:type="MSArtboardGroup">
            <g id="Safely-+-Path-+-Path-+-Rectangle-2-+-Rectangle-3" sketch:type="MSLayerGroup">
                <g id="Path-+-Path-+-Rectangle-2-+-Rectangle-3" transform="translate(0.000000, 1.684211)" fill="#147612" sketch:type="MSShapeGroup">
                    <path d="M17.6986056,33.3630063 C17.7363828,32.4667844 17.8102601,31.4853931 17.9286593,30.4441447 C18.251819,27.6021523 18.8484697,24.7950404 19.7652532,22.2338606 C22.2583554,15.2689851 26.3919008,11.5805036 33.2384558,11.5805036 C40.0760792,11.5805036 44.1084117,15.1846343 46.480374,22.0165783 C47.3271931,24.4556645 47.8732943,27.1286237 48.161652,29.8471342 C48.2696018,30.864838 48.3350913,31.8331614 48.3659134,32.7295109 C48.3868698,33.3389541 48.3895216,33.8347697 48.3822352,34.1949069 C48.3812164,34.2452601 59.97391,34.6926825 59.97391,34.6926825 C59.9763461,34.629608 59.9790637,34.537928 59.9814713,34.4189352 C60.0115626,32.9316564 59.9439713,30.9660014 59.7013485,28.6786597 C59.3295671,25.1736675 58.617884,21.6902469 57.4669843,18.3753199 C53.6403525,7.35350296 45.6877198,0.245377043 33.2384558,0.245377043 C20.7981235,0.245377043 12.7865641,7.39432216 8.81417326,18.4918244 C7.58125657,21.9361723 6.81130693,25.5586182 6.39809844,29.1925348 C6.24889365,30.5046999 6.15539964,31.7466803 6.10692961,32.8965785 C6.07386911,33.6809025 6.06529246,34.3256704 6.07110888,34.8084052 C6.07240558,34.8994219 6.07240558,34.8994219 6.07335286,34.9422933 L17.6718239,34.6831961 C17.6683285,34.3862556 17.6742554,33.9406886 17.6986056,33.3630063 Z" id="Path"></path>
                    <path d="M2.99839624,30.8363374 C1.34242772,30.8363374 0,32.1866323 0,33.8333022 L0,83.5819826 C0,85.2371605 1.33362895,86.5789474 2.99839624,86.5789474 L63.7652401,86.5789474 C65.4212086,86.5789474 66.7636364,85.2286525 66.7636364,83.5819826 L66.7636364,33.8333022 C66.7636364,32.1781243 65.4300074,30.8363374 63.7652401,30.8363374 L2.99839624,30.8363374 Z M33.9887603,78.2768565 C45.3857267,78.2768565 54.6247934,69.2499229 54.6247934,58.1146359 C54.6247934,46.9793489 45.3857267,37.9524153 33.9887603,37.9524153 C22.591794,37.9524153 13.3527273,46.9793489 13.3527273,58.1146359 C13.3527273,69.2499229 22.591794,78.2768565 33.9887603,78.2768565 Z" id="Path"></path>
                    <g id="Rectangle-2-+-Rectangle-3" transform="translate(31.560992, 43.882480)">
                        <rect id="Rectangle-2" x="0" y="0" width="3.64165289" height="16.6041817"></rect>
                        <rect id="Rectangle-3" transform="translate(7.890248, 15.418169) rotate(-270.000000) translate(-7.890248, -15.418169) " x="6.06942149" y="7.70908435" width="3.64165289" height="15.4181687"></rect>
                    </g>
                </g>
                <path d="M138.68081,19.9742663 C138.094883,20.9117488 137.47967,21.6148501 136.83515,22.0835913 C136.190631,22.5523326 135.360581,22.7866997 134.344975,22.7866997 C133.446554,22.7866997 132.47979,22.5035061 131.444653,21.9371104 C130.409516,21.3707147 129.23768,20.7359705 127.929111,20.0328586 C126.620542,19.3297467 125.126452,18.6950025 123.446795,18.1286068 C121.767139,17.5622111 119.853141,17.2790175 117.704744,17.2790175 C113.993876,17.2790175 111.230297,18.0700065 109.413924,19.6520083 C107.597552,21.23401 106.689379,23.3726098 106.689379,26.067872 C106.689379,27.7865899 107.236236,29.2123232 108.329966,30.3451146 C109.423695,31.4779059 110.859194,32.4544355 112.636504,33.2747327 C114.413815,34.0950299 116.444997,34.8469577 118.73011,35.5305387 C121.015224,36.2141197 123.34913,36.9758128 125.731898,37.8156409 C128.114666,38.6554689 130.448571,39.6417639 132.733685,40.7745552 C135.018799,41.9073466 137.04998,43.3526104 138.827291,45.1103901 C140.604601,46.8681698 142.0401,49.0067697 143.133829,51.5262539 C144.227559,54.0457381 144.774416,57.0827452 144.774416,60.6373664 C144.774416,64.5826052 144.090845,68.2738872 142.723683,71.711323 C141.356521,75.1487588 139.374166,78.1467048 136.776558,80.7052508 C134.17895,83.2637968 130.975933,85.2754478 127.16741,86.7402642 C123.358888,88.2050806 119.032862,88.9374778 114.189202,88.9374778 C111.533002,88.9374778 108.828015,88.6640495 106.07416,88.1171847 C103.320305,87.5703199 100.654379,86.7988615 98.0763021,85.8027864 C95.4982252,84.8067112 93.0764318,83.6251104 90.810849,82.2579484 C88.5452663,80.8907864 86.5726765,79.3674002 84.8930204,77.6877441 L90.7522567,68.4301507 C91.1819362,67.7270388 91.7873845,67.1606516 92.5686199,66.7309721 C93.3498554,66.3012927 94.1896708,66.0864561 95.0880916,66.0864561 C96.2599447,66.0864561 97.4415455,66.4575374 98.6329295,67.199711 C99.8243136,67.9418847 101.171924,68.7621696 102.675803,69.6605903 C104.179681,70.559011 105.908138,71.3792959 107.861227,72.1214696 C109.814315,72.8636432 112.118925,73.2347245 114.775126,73.2347245 C118.368809,73.2347245 121.161683,72.4437355 123.153834,70.8617337 C125.145984,69.279732 126.142044,66.7700509 126.142044,63.3326151 C126.142044,61.3404648 125.595188,59.7194256 124.501458,58.4694489 C123.407728,57.2194723 121.97223,56.1843509 120.194919,55.3640537 C118.417609,54.5437565 116.396192,53.8211246 114.13061,53.1961362 C111.865027,52.5711479 109.540886,51.8778119 107.158118,51.1161073 C104.77535,50.3544028 102.45121,49.4169344 100.185627,48.3036739 C97.9200445,47.1904134 95.8986281,45.725619 94.1213176,43.9092466 C92.344007,42.0928743 90.9085085,39.8273256 89.8147789,37.1125325 C88.7210493,34.3977394 88.1741927,31.0482428 88.1741927,27.0639422 C88.1741927,23.860877 88.8187023,20.7359822 90.1077407,17.6891641 C91.3967791,14.642346 93.2912466,11.9275936 95.7911999,9.54482559 C98.2911533,7.16205757 101.357456,5.25782481 104.990201,3.83207018 C108.622946,2.40631554 112.782962,1.69344892 117.470374,1.69344892 C120.087513,1.69344892 122.636255,1.89852014 125.116678,2.30866873 C127.5971,2.71881732 129.950537,3.32426569 132.177058,4.12503199 C134.403578,4.92579829 136.483587,5.88279732 138.417144,6.99605779 C140.350702,8.10931826 142.079159,9.36904147 143.602568,10.7752652 L138.68081,19.9742663 Z M196.570065,88 C194.851347,88 193.552562,87.7656329 192.673673,87.2968916 C191.794783,86.8281504 191.062386,85.8516208 190.476459,84.3672735 L189.187427,81.0275088 C187.664018,82.3165472 186.199223,83.4493216 184.793,84.4258658 C183.386776,85.4024101 181.931747,86.2324603 180.427869,86.9160413 C178.92399,87.5996223 177.322482,88.1074177 175.623295,88.4394427 C173.924108,88.7714678 172.039406,88.9374778 169.969132,88.9374778 C167.195746,88.9374778 164.6763,88.5761619 162.410717,87.8535191 C160.145134,87.1308763 158.221371,86.066459 156.639369,84.6602353 C155.057367,83.2540115 153.836705,81.5060235 152.977346,79.4162188 C152.117988,77.326414 151.688314,74.9143859 151.688314,72.1800619 C151.688314,70.0316645 152.235171,67.8247076 153.328901,65.5591249 C154.42263,63.2935422 156.317098,61.2330647 159.01236,59.3776305 C161.707622,57.5221964 165.340312,55.9695143 169.910539,54.7195377 C174.480767,53.469561 180.242291,52.7664597 187.195287,52.6102126 L187.195287,50.0321486 C187.195287,46.4775275 186.462889,43.9092546 184.998073,42.3272528 C183.533257,40.7452511 181.453248,39.9542621 178.757986,39.9542621 C176.609589,39.9542621 174.851836,40.1886292 173.484674,40.6573705 C172.117512,41.1261117 170.89685,41.6534377 169.822651,42.2393643 C168.748452,42.8252909 167.703566,43.3526169 166.687959,43.8213581 C165.672353,44.2900994 164.461457,44.5244665 163.055233,44.5244665 C161.805256,44.5244665 160.740839,44.2217423 159.861949,43.6162848 C158.983059,43.0108274 158.289723,42.2588996 157.78192,41.3604788 L154.500748,35.6770196 C158.172554,32.4348926 162.244683,30.0228645 166.717256,28.4408627 C171.189828,26.858861 175.984589,26.067872 181.101681,26.067872 C184.773487,26.067872 188.083923,26.6635551 191.033086,27.8549391 C193.98225,29.0463231 196.482166,30.7064235 198.532909,32.83529 C200.583652,34.9641565 202.155865,37.4933682 203.249594,40.423001 C204.343324,43.3526338 204.89018,46.555651 204.89018,50.0321486 L204.89018,88 L196.570065,88 Z M175.711183,76.9260433 C178.05489,76.9260433 180.105602,76.5159009 181.863382,75.6956037 C183.621161,74.8753065 185.398445,73.5472262 187.195287,71.711323 L187.195287,63.2740227 C183.562542,63.4302698 180.574361,63.7427593 178.230655,64.2115005 C175.886949,64.6802418 174.031543,65.2661595 172.664381,65.9692714 C171.297219,66.6723833 170.349985,67.4731376 169.822651,68.3715583 C169.295317,69.269979 169.031654,70.2465087 169.031654,71.3011765 C169.031654,73.3714503 169.598041,74.8264795 170.730833,75.6663075 C171.863624,76.5061356 173.523724,76.9260433 175.711183,76.9260433 L175.711183,76.9260433 Z M220.475749,88 L220.475749,39.7198927 L216.491468,38.8995996 C215.124306,38.5871054 214.020828,38.0988406 213.181,37.4347905 C212.341172,36.7707404 211.921264,35.7942108 211.921264,34.5051723 L211.921264,27.356904 L220.475749,27.356904 L220.475749,23.8999546 C220.475749,20.423457 221.032371,17.2790316 222.145631,14.4665841 C223.258892,11.6541366 224.8604,9.25187374 226.950205,7.25972343 C229.04001,5.26757311 231.588752,3.72465631 234.596508,2.63092673 C237.604265,1.53719715 241.022119,0.990340557 244.850172,0.990340557 C246.334519,0.990340557 247.711426,1.07822822 248.980934,1.25400619 C250.250441,1.42978416 251.568756,1.71297775 252.935918,2.10359546 L252.584364,10.9510423 C252.545302,11.5760306 252.379292,12.0935913 252.086329,12.5037399 C251.793366,12.9138885 251.43205,13.2459086 251.00237,13.4998101 C250.572691,13.7537116 250.094191,13.9392523 249.566857,14.0564376 C249.039523,14.1736229 248.521963,14.2322147 248.01416,14.2322147 C246.412627,14.2322147 244.986894,14.3884594 243.736917,14.7009536 C242.48694,15.0134477 241.442054,15.5700696 240.602226,16.3708359 C239.762398,17.1716022 239.127653,18.2262542 238.697974,19.5348235 C238.268294,20.8433929 238.053458,22.4937279 238.053458,24.4858782 L238.053458,27.356904 L252.349995,27.356904 L252.349995,39.778485 L238.639382,39.778485 L238.639382,88 L220.475749,88 Z M286.216381,26.3022415 C290.239743,26.3022415 293.92126,26.9272204 297.261041,28.1771971 C300.600822,29.4271738 303.471819,31.2435189 305.874118,33.6262869 C308.276417,36.0090549 310.151354,38.9288785 311.498985,42.3858452 C312.846616,45.8428119 313.520422,49.7586957 313.520422,54.133614 C313.520422,55.500776 313.46183,56.6140198 313.344645,57.4733787 C313.227459,58.3327377 313.012623,59.0163084 312.700129,59.5241115 C312.387635,60.0319145 311.967727,60.3834651 311.440393,60.578774 C310.913059,60.7740828 310.239254,60.8717358 309.418956,60.8717358 L274.380723,60.8717358 C274.96665,65.949766 276.509567,69.6312827 279.00952,71.9163963 C281.509473,74.2015099 284.732021,75.3440495 288.67726,75.3440495 C290.786595,75.3440495 292.602941,75.0901518 294.12635,74.5823488 C295.649759,74.0745458 297.007135,73.5081586 298.198519,72.8831703 C299.389903,72.2581819 300.483616,71.6917948 301.479691,71.1839917 C302.475766,70.6761887 303.520653,70.422291 304.614383,70.422291 C306.059668,70.422291 307.153381,70.949617 307.895555,72.0042848 L313.168868,78.5080372 C311.293903,80.6564345 309.272486,82.4044226 307.104558,83.7520537 C304.93663,85.0996848 302.710142,86.1543367 300.425029,86.9160413 C298.139915,87.6777458 295.854836,88.2050718 293.569722,88.4980351 C291.284609,88.7909984 289.106947,88.9374778 287.036674,88.9374778 C282.778941,88.9374778 278.784934,88.2441418 275.054535,86.8574489 C271.324136,85.4707561 268.062527,83.4102785 265.269611,80.6759546 C262.476694,77.9416306 260.269737,74.5433075 258.648674,70.4808834 C257.02761,66.4184592 256.217091,61.6920558 256.217091,56.3015315 C256.217091,52.2391073 256.910427,48.3915806 258.297119,44.7588359 C259.683812,41.1260912 261.675933,37.9426047 264.27354,35.2082807 C266.871148,32.4739567 270.015574,30.306061 273.706911,28.7045284 C277.398248,27.1029958 281.56803,26.3022415 286.216381,26.3022415 L286.216381,26.3022415 Z M286.567935,38.8410072 C283.091437,38.8410072 280.376685,39.8273021 278.423596,41.7999216 C276.470508,43.772541 275.181489,46.6142422 274.5565,50.3251104 L297.231745,50.3251104 C297.231745,48.8798249 297.046204,47.4736222 296.675117,46.1064603 C296.304031,44.7392983 295.698582,43.5186363 294.858754,42.4444376 C294.018926,41.3702389 292.915448,40.5011275 291.548286,39.8370774 C290.181124,39.1730273 288.521023,38.8410072 286.567935,38.8410072 L286.567935,38.8410072 Z M333.617602,2.74811146 L333.617602,88 L328.051328,88 L328.051328,2.74811146 L333.617602,2.74811146 Z M366.956657,106.749556 C366.722286,107.296421 366.419562,107.745625 366.048475,108.097181 C365.677389,108.448737 365.140297,108.624512 364.437185,108.624512 L360.452905,108.624512 L370.706568,85.8320826 L346.039183,29.7005986 L350.66798,29.7005986 C351.253907,29.7005986 351.712876,29.847078 352.044901,30.1400413 C352.376926,30.4330046 352.621058,30.7552593 352.777305,31.1068153 L372.405747,76.4573044 C372.640118,77.043231 372.845189,77.6389141 373.020967,78.2443715 C373.196745,78.849829 373.362755,79.4650426 373.519002,80.090031 C373.714311,79.4650426 373.919382,78.849829 374.134222,78.2443715 C374.349061,77.6389141 374.573663,77.043231 374.808034,76.4573044 L394.202106,31.1068153 C394.397415,30.6771358 394.670843,30.3353504 395.022399,30.0814489 C395.373955,29.8275474 395.764567,29.7005986 396.194246,29.7005986 L400.471489,29.7005986 L366.956657,106.749556 Z" id="Safely" fill="#034D01" sketch:type="MSShapeGroup"></path>
            </g>
        </g>
    </g>
</svg>