<?xml version="1.0" encoding="UTF-8" standalone="no"?>
<svg width="253px" height="116px" viewBox="0 0 253 116" version="1.1" xmlns="http://www.w3.org/2000/svg" xmlns:xlink="http://www.w3.org/1999/xlink" xmlns:sketch="http://www.bohemiancoding.com/sketch/ns">
    <!-- Generator: Sketch 3.3 (11970) - http://www.bohemiancoding.com/sketch -->
    <title>wiry-web-dark</title>
    <desc>Created with Sketch.</desc>
    <defs></defs>
    <g id="brand" stroke="none" stroke-width="1" fill="none" fill-rule="evenodd" sketch:type="MSPage">
        <g id="wiry-web-dark" sketch:type="MSArtboardGroup">
            <text id="WIRY" sketch:type="MSTextLayer" font-family="Amplitude-Bold" font-size="109" font-weight="bold" fill="#FFFFFF">
                <tspan x="0" y="115">WIRY</tspan>
            </text>
            <path d="M135.851326,64.1294874 L135.432484,67.5500351 C135.432484,67.8292649 135.479021,68.0619529 135.572098,68.2481061 C134.036334,71.2265571 132.442421,73.4021899 130.790312,74.7750696 C129.138202,76.1479494 127.125451,76.834379 124.751998,76.834379 C122.378545,76.834379 120.517041,76.1595838 119.16743,74.8099732 C117.81782,73.4603626 116.817261,71.7617402 116.165725,69.7140551 C114.816115,65.7117616 114.141319,61.9422161 114.141319,58.4053055 C114.141319,43.8853568 115.67706,30.6221411 118.748588,18.6152605 C118.888203,18.0568009 119.144159,17.2656617 119.516466,16.2418192 C120.400693,13.9614426 120.842801,12.3675299 120.842801,11.4600331 C120.842801,10.5525363 120.621747,9.33092429 120.179633,7.79516049 C119.737519,6.25939669 119.190703,4.56077432 118.539166,2.69924244 C113.51303,-12.4722424 111,-23.1293526 111,-29.2724078 C111,-34.5777736 112.442666,-38.1379 115.32804,-39.9528936 C116.444959,-40.650968 117.771281,-41 119.307044,-41 L121.889907,-41 C122.169137,-40.8603851 122.634513,-40.6509659 123.286049,-40.3717361 C123.937585,-40.0925063 124.42623,-39.8598184 124.751998,-39.6736652 C125.729302,-39.1152056 126.427366,-38.370604 126.846211,-37.4398381 C128.661205,-33.3444679 129.568688,-28.4347512 129.568688,-22.7105407 C129.568688,-16.9863302 128.614667,-9.07493834 126.706597,1.02387212 C125.310448,7.30654223 124.612384,10.587443 124.612384,10.8666727 C124.612384,11.1459025 124.728728,11.6112785 124.961419,12.2628147 C125.194111,12.9143508 125.473336,13.6124148 125.799104,14.3570276 C126.124873,15.1016403 126.334292,15.6135539 126.427368,15.8927837 C132.710038,34.8338706 135.851326,50.912611 135.851326,64.1294874 L135.851326,64.1294874 Z M119.16743,67.6896493 C119.260507,69.1788748 119.725883,70.6215404 120.563572,72.0176893 C121.401262,73.4138382 122.494895,74.1119022 123.844506,74.1119022 C126.869495,74.1119022 129.056762,73.0648062 130.406373,70.9705829 C131.755983,68.8763595 132.430779,66.2469852 132.430779,63.082381 C132.430779,54.0539513 130.615812,42.9081964 126.985825,29.6447817 C126.706595,28.6674775 126.357563,27.1782743 125.938719,25.1771275 C124.914876,20.8025276 123.984124,17.8706589 123.146435,16.3814334 C121.238365,19.0341163 119.807333,25.2119826 118.853298,34.9152175 C117.899263,44.6184524 117.422253,52.8672419 117.422253,59.6618332 C117.422253,61.6164417 118.05051,64.1527408 119.307044,67.2708068 L119.16743,67.6896493 Z M121.122029,-37.8586807 L119.586273,-37.7190665 C118.84166,-37.7190665 118.25994,-37.8586793 117.841095,-38.137909 C115.653796,-36.3694538 114.560162,-33.6586386 114.560162,-30.0053823 C114.560162,-26.352126 115.467645,-20.0230125 117.282639,-11.017852 C119.097632,-2.01269155 120.679911,2.90865954 122.029521,3.74634889 C124.868357,-5.37515733 126.287754,-13.8915379 126.287754,-21.8030484 C126.287754,-26.6430313 125.775841,-30.5289209 124.751998,-33.4608336 C123.728155,-36.3927463 122.518178,-37.8586807 121.122029,-37.8586807 L121.122029,-37.8586807 Z" id="8" fill="#E8E8E8" sketch:type="MSShapeGroup" transform="translate(126.217947, 17.917189) rotate(-267.000000) translate(-126.217947, -17.917189) "></path>
        </g>
    </g>
</svg>